Patient4_TMGait_0pt8_01_left_29_EMG.mot
version=1
nRows=33
nColumns=33
inDegrees=no
endheader
time	1LAddLong	2LGlutMax	3LGlutMed	4LIliopsoas	5LSemiMemb	6LBicFemLong	7LRecFem	8LVastMed	9LVastLat	10LGasMed	11LTibAnt	12lTibPost	13LPeroneusLong	14LSol	15LExtDigLong	16LFlexDigLong	17RAddLong	18RGlutMax	19RGlutMed	20RIliopsoas	21RSemiMemb	22RBicFemLong	23RRecFem	24RVastMed	25RVastLat	26RGasMed	27RTibAnt	28RTibPost	29RPeroneusLong	30RSol	31RExtDigLong	32RFlexDigLong
32.62	0.024567	0.12573	0.5809	-0.001526	0.006409	0.031433	-0.37186	0.001068	-0.046082	-0.22629	0.010376	-0.019836	-0.05127	-0.2182	-0.021667	-0.031433	-0.046082	-0.32257	0.33325	-0.016174	-0.19363	0.31326	0.06897	0.53543	-0.015717	-0.000458	0.33844	0.001068	0.097351	-0.071564	-0.005798	-0.001831
32.621	0.02594	0.14481	0.61813	0.006561	0.007172	0.044403	-0.37582	-0.003357	-0.033875	-0.072937	0.02182	-0.021667	-0.085602	0	0.049744	-0.037537	-0.032349	-0.298	0.23422	-0.028381	0.4686	0.20279	0.02243	0.87784	-0.15442	0.000153	0.11292	-0.00351	0.062256	-0.076599	-0.007782	0.000458
32.622	0.02655	0.18524	0.62714	0.006866	0.005341	0.037384	-0.36514	-0.001984	-0.028229	-0.013733	0.013275	-0.026398	-0.038452	0.042419	0.025177	-0.024261	-0.058899	-0.18799	0.23102	-0.021057	0.58991	-0.16373	-0.17242	1.0135	-0.13214	0.000916	0.038605	-0.001068	0.043182	0.000153	-0.003662	-0.000458
32.623	0.024872	0.21042	0.62439	-0.002747	0.011139	0.045929	-0.35339	0.010681	-0.0383	-0.02243	0.013733	-0.026245	-0.044556	0.082703	0.006256	-0.027924	-0.13031	-0.083466	0.17136	0.052795	0.3125	-0.55374	-0.26306	1.0188	-0.2655	-0.000916	-0.026245	0.000763	0.077667	0.12528	-0.006256	0.000916
32.624	0.02121	0.21255	0.62118	0.00824	0.006561	0.072021	-0.3685	0.024872	-0.045776	-0.01297	0.008392	-0.03418	-0.042114	0.095062	0.008545	-0.027161	-0.13763	-0.095367	0.22781	0.038147	0.073547	-0.35187	-0.1004	0.6189	-0.63522	-0.002594	0.009003	-0.007019	0.081024	0.085754	-0.005951	0.000458
32.625	0.019379	0.22812	0.6163	0.011902	-0.002441	0.11841	-0.3804	0.002594	-0.050507	-0.025177	0.009155	-0.018616	-0.035706	0.10284	0.00885	-0.014343	-0.11841	-0.19058	0.31509	-0.010986	0.19775	-0.001831	-0.037842	0.18601	-0.76508	-0.000916	0.075378	0.003967	0.046082	0.017242	-0.002747	0.001068
32.626	0.020905	0.25665	0.62546	0.011902	-0.002289	0.12024	-0.38742	0.004578	-0.045624	-0.030823	0.006256	-0.019379	0.000458	0.092621	0.031433	-0.006104	-0.050049	-0.19547	0.42786	-0.021667	0.37781	0.12405	0.01709	-0.16495	-0.82474	0.001831	0.054169	-0.001678	0.1004	0.028992	-0.003967	-0.005798
32.627	0.032959	0.27939	0.62988	0.017853	-0.007629	0.10956	-0.39597	-0.009766	-0.03952	-0.040436	0.009308	-0.020294	0.001068	0.14481	0.032349	-0.011902	0.012817	-0.11444	0.29556	-0.03479	0.28107	-0.055542	-0.11353	-0.24521	-0.88516	0.00061	0.051727	-0.002136	0.084991	0.02182	-0.00473	-0.000153
32.628	0.031586	0.2594	0.62622	0.001373	0.007782	0.006104	-0.37918	0.000305	-0.032196	0.047913	0.00885	-0.010071	-0.060577	0.15259	0.035553	-0.021515	0.018921	-0.21103	0.31158	-0.022736	0.034637	-0.027771	-0.33142	-0.50217	-1.0173	-0.007477	0.047913	-0.000763	0.080414	-0.017395	-0.001831	-0.001373
32.629	0.03418	0.23773	0.62927	-0.006866	0.016174	-0.10315	-0.35721	-0.003357	-0.037842	0.079651	0.0177	-0.030975	-0.027771	0.17059	0.038452	-0.012054	0.042877	-0.38422	0.31967	-0.022583	0.022278	-0.16983	-0.16724	-0.80032	-0.91263	-0.001373	0.062103	0.000763	0.023193	-0.008087	-0.002899	-0.006714
32.63	0.03418	0.22659	0.62836	-0.00824	0.044556	-0.1944	-0.35736	-0.00412	-0.053406	0.20432	0.03418	0.097961	0.032959	0.18921	0.048065	-0.029755	0.097961	-0.36316	0.23254	-0.055084	0.20981	-0.19898	0.12222	-0.5574	-0.94757	-0.003357	0.074615	-0.00473	0.033569	0.003204	-0.000305	-0.006561
32.631	0.035553	0.22949	0.63309	0.009308	0.028687	-0.17624	-0.34714	-0.007782	-0.049744	0.30807	0.029144	0.067596	-0.022736	0.31265	0.071716	-0.034485	0.15076	-0.47867	0.09201	-0.031128	0.1944	0.041046	0.27069	-0.47653	-0.79681	-0.009308	0.067902	-0.000153	0.009766	0.002747	-0.00351	-0.010071
32.632	0.022888	0.21027	0.70847	0.022278	0.030518	-0.10788	-0.31723	0.003204	-0.072327	0.30441	0.001068	0.085602	0.083008	0.46524	0.1149	0.025482	0.099335	-0.58273	0.1236	0.009918	-0.019989	0.013275	0.25391	-0.31616	-0.62088	-0.002136	0.058289	-0.001984	0.011597	-0.044403	-0.001526	-0.01297
32.633	0.02594	0.19806	0.7373	0.021973	0.006561	0.032501	-0.31433	0.008698	-0.081024	0.30243	0.008087	-0.46356	0.024567	0.62531	0.10529	-0.00412	0.00473	-0.47104	0.077972	-0.023804	-0.23163	0.095825	0.084381	-0.11017	-0.37094	-0.002441	0.051727	-0.002747	0.019531	-0.018005	-0.006104	-0.010834
32.634	0.009308	0.20218	0.76004	-0.005493	-0.008545	0.052795	-0.30472	0.003204	-0.077362	0.37445	0.012817	0.016785	-0.11398	0.41397	0.11032	-0.14832	-0.1297	-0.27756	0.15686	-0.024261	-0.25803	0.40924	-0.008698	-0.003357	-0.18051	0.000916	0.057678	-0.000305	0.000305	-0.009308	-0.00473	-0.016174
32.635	0.019226	0.15808	0.7663	-0.002136	-0.007172	0.007324	-0.30823	0.001526	-0.050049	0.12726	-0.039368	0.082092	0.31036	0.32608	0.041046	0.15595	-0.12589	-0.10132	0.27542	-0.019989	0.42816	0.40878	-0.012054	-0.11627	-0.30106	0.000305	0.075378	-0.001831	-0.035706	-0.03891	-0.006256	-0.014038
32.636	0.019836	0.13412	0.76828	0.016632	-0.000458	-0.00351	-0.32837	-0.005493	-0.045013	-0.34897	-0.020447	-0.02121	-0.068359	0.06485	-0.060577	-0.23621	-0.052795	0.043335	0.15945	-0.013885	0.36575	0.34897	0.039215	-0.3685	-0.39749	0.004883	0.049591	-0.001678	0.005951	-0.069122	-0.007782	-0.018005
32.637	0.015869	0.19592	0.75882	0.018616	0.003052	-0.016327	-0.31708	-0.001068	-0.03067	-0.30121	0.000763	0.10681	-0.20905	-0.40955	-0.063782	-0.019073	0.020294	0.21668	0.12909	-0.081482	0.11612	0.30655	0.011902	-0.34775	-0.25818	-0.002441	0.043793	-0.00061	-0.008392	-0.083923	-0.006714	-0.010529
32.638	0.023956	0.21866	0.76202	0.014954	0.00824	-0.001984	-0.27527	-0.001373	-0.032349	-0.15717	-0.014954	-0.012512	0.18143	-0.37613	-0.088196	0.3212	0.075836	0.30701	0.2005	-0.20905	-0.038757	0.26001	0.15396	-0.33524	-0.11749	-0.00824	0.075989	-0.001678	-0.046844	-0.093689	-0.00946	-0.002747
32.639	0.025177	0.1976	0.77347	0.011597	0.023346	-0.006409	-0.25696	-0.003815	-0.02533	-0.23895	-0.006561	-0.038605	0.18326	-0.81634	-0.12268	0.1915	0.056458	0.35873	0.14893	-0.27145	0.05249	0.30014	0.13886	-0.16708	-0.086517	-0.008392	0.035706	-0.002289	0.022736	-0.058746	-0.008698	0.004425
32.64	0.025482	0.15137	0.7785	-0.013275	0.023956	-0.006256	-0.25009	-0.00946	-0.018311	-0.083313	-0.007172	-0.029755	0.12146	-1.0452	-0.13123	0.058289	-0.039063	0.41016	0.23636	-0.21286	0.52216	0.3804	-0.081024	0.063934	-0.045471	-0.003967	0.017853	-0.004578	0.055084	-0.067291	-0.008087	-0.001221
32.641	0.0177	0.1889	0.76233	-0.010834	0.00824	-0.002136	-0.23422	0.004272	-0.027771	-0.32455	0.00824	-0.033722	0.086212	-0.33234	-0.088654	-0.22018	-0.11597	0.35385	0.49927	-0.11307	0.34637	0.40482	-0.26947	0.14984	-0.092773	-0.001373	0.035706	-0.009918	0.025787	-0.062256	-0.005798	-0.003967
32.642	0.02182	0.2356	0.78781	-0.005951	0.01358	-0.033875	-0.21408	-0.001221	-0.042114	-0.22476	0.000458	-0.016937	0.011749	-0.31006	-0.028076	0.20615	-0.14099	0.39414	0.43701	0.027008	0.14191	0.38696	-0.2739	0.012054	-0.17319	-0.010223	0.035248	-0.001831	0.16724	-0.078125	-0.010223	-0.001526
32.643	0.014801	0.23575	0.82062	0.014648	-0.010071	0.012054	-0.18112	-0.003052	-0.032501	-0.28137	-0.004578	-0.008545	-0.065308	-0.63416	-0.02243	0.095825	-0.083923	0.30975	0.10803	0.30914	0.31189	0.35263	-0.43274	0.074768	-0.12238	-0.014648	0.045013	-0.001984	0.095825	-0.077515	-0.008698	-0.008087
32.644	0.01297	0.25894	0.77759	0.023193	-0.024261	-0.054169	-0.17838	-0.000153	-0.01709	-0.16266	0.027924	0.010529	-0.103	-0.29114	-0.019836	-0.22522	-0.023041	0.17242	0.15595	0.38437	0.57739	0.24109	-0.70648	0.042572	0.028992	-0.011444	0.018921	-0.006104	0.21072	-0.11551	-0.005188	-0.003815
32.645	0.019226	0.36819	0.74081	0.01709	-0.009766	-0.13001	-0.1738	-0.007477	-0.00946	0.001526	-0.000305	0.010376	-0.088043	0.24811	0.016174	0.25452	-0.001526	0.14771	0.11307	0.21606	0.69244	-0.038757	-0.76508	0.030212	0.18112	-0.011139	-0.001373	-0.002441	-0.51315	-0.11856	-0.006409	-0.005188
32.646	0.019836	0.40604	0.73883	0.00351	-0.005798	-0.19272	-0.17258	-0.001068	-0.002899	-0.019989	0.003052	-0.011139	-0.098114	0.14847	0.029602	0.049896	-0.002594	0.13825	0.35675	0.059967	0.69183	-0.2858	-0.62897	-0.042419	0.28336	0.005951	-0.020447	-0.001831	0.31738	-0.11749	-0.008545	-0.003815
32.647	0.028534	0.42801	0.74356	-0.003357	0.018616	-0.21133	-0.1265	-0.00946	-0.013733	-0.13412	-0.006866	-0.000763	-0.10956	0.26779	0.020599	-0.020294	-0.046997	0.009003	0.58227	0.0177	0.30762	-0.20187	-0.64758	-0.14099	0.31632	0.00473	0.012207	-0.009003	-0.20645	-0.041199	-0.008698	-0.004425
32.648	0.02121	0.43915	0.76004	-0.004883	0.049286	-0.18936	-0.10193	-0.006561	-0.00885	-0.14114	0.007172	-0.000763	-0.052338	0.36255	0.020294	-0.032654	-0.10971	-0.049591	0.20233	0.009918	0.2211	-0.094452	-0.78766	-0.19928	0.68558	0.005798	0.059814	-0.008545	-0.31693	-0.080872	-0.007172	-0.007935
32.649	0.021057	0.38986	0.77896	0.008698	0.065765	-0.15305	-0.12009	-0.008545	-0.017548	-0.11231	0.019836	-0.005188	0.028839	0.29098	0.018768	-0.019226	-0.10407	0.081787	0.12985	-0.042572	0.27298	0.022278	-0.83206	-0.10971	0.72098	-0.008392	0.048218	-0.011139	0.065308	-0.071411	-0.008698	-0.001984
32.65	0.016327	0.35446	0.89386	0.005646	0.063782	-0.096741	-0.086517	-0.000305	-0.05127	-0.16556	0.010223	-0.006104	-0.16174	0.21942	0.010071	-0.026855	-0.022583	0.19028	0.065308	-0.097809	0.39078	-0.071259	-0.63507	-0.13748	0.6778	-0.001678	0.046082	-0.007172	-0.066986	-0.019379	-0.008545	-0.011292
32.651	0.010681	0.37155	0.87372	-0.012207	0.039825	0.069122	-0.063934	-0.000458	-0.055695	-0.15976	0.003815	-0.005188	0.037994	0.14999	0.011597	-0.03418	0.029755	0.22964	0.038452	-0.13184	0.57846	-0.1268	-0.53421	-0.3215	1.1247	0.000153	0.021057	-0.007935	-0.25223	-0.075226	0	-0.002594
32.652	0.014954	0.29327	0.88135	-0.022583	0.047455	0.13092	-0.061798	0.001373	-0.06897	0.003052	-0.000763	0.002899	0.58914	0.22858	0.020599	-0.020142	0.050201	0.19333	-0.28534	-0.057373	0.54504	0.003967	-0.57632	-0.32577	1.1282	-0.001831	0.032349	-0.009003	-0.089722	-0.0914	-0.009613	-0.001373
